#N canvas 258 105 471 553 12;
#X declare -path mrpeach;
#X obj 17 19 declare -path mrpeach;
#X obj 52 420 udpsend;
#X obj 330 112 udpreceive 12001;
#X obj 330 142 unpackOSC;
#X obj 330 174 routeOSC /test;
#X floatatom 330 208 5 0 0 0 - - -;
#X obj 330 237 osc~;
#X obj 326 281 dac~;
#X msg 115 377 connect 127.0.0.1 12000;
#X obj 50 310 packOSC;
#X floatatom 50 241 5 0 0 0 - - -;
#X msg 51 268 send /x \$1;
#X floatatom 155 240 5 0 0 0 - - -;
#X msg 156 267 send /y \$1;
#X connect 2 0 3 0;
#X connect 3 0 4 0;
#X connect 4 0 5 0;
#X connect 5 0 6 0;
#X connect 6 0 7 0;
#X connect 6 0 7 1;
#X connect 8 0 1 0;
#X connect 9 0 1 0;
#X connect 10 0 11 0;
#X connect 11 0 9 0;
#X connect 12 0 13 0;
#X connect 13 0 9 0;
